<?xml version="1.0" standalone="no"?>
<!DOCTYPE svg PUBLIC "-//W3C//DTD SVG 20010904//EN"
 "http://www.w3.org/TR/2001/REC-SVG-20010904/DTD/svg10.dtd">
<svg version="1.0" xmlns="http://www.w3.org/2000/svg"
 width="1920.000000pt" height="251.000000pt" viewBox="0 0 1920.000000 251.000000"
 preserveAspectRatio="xMidYMid meet">

<g transform="translate(0.000000,251.000000) scale(0.100000,-0.100000)"
fill="#848962" stroke="none">
<path d="M5870 2425 c0 -54 6 -99 15 -122 8 -19 15 -52 15 -72 0 -20 5 -52 11
-71 23 -74 31 -251 31 -670 0 -455 -4 -540 -28 -540 -11 0 -14 22 -14 109 0
85 -3 111 -15 121 -13 11 -15 65 -15 400 1 246 -3 396 -10 414 -5 15 -10 54
-10 86 0 33 -6 74 -14 92 -8 18 -21 48 -28 66 -11 27 -18 32 -45 32 -54 0 -73
-25 -73 -96 0 -41 5 -66 14 -73 22 -19 28 -79 33 -335 2 -157 0 -243 -7 -250
-5 -5 -10 -23 -10 -38 0 -24 -4 -28 -29 -28 -16 0 -34 7 -41 15 -7 8 -25 15
-41 15 -15 0 -31 5 -34 10 -3 6 -19 10 -34 10 -16 0 -34 7 -41 15 -7 8 -26 15
-42 15 -16 0 -39 5 -51 12 -12 7 -47 15 -77 19 -30 5 -128 33 -218 64 -90 31
-188 59 -218 62 -29 3 -59 12 -65 19 -6 8 -17 14 -23 14 -20 0 -66 54 -66 77
0 11 7 26 15 33 43 35 -4 257 -80 385 -19 32 -35 62 -35 68 0 17 -52 67 -70
67 -10 0 -34 11 -54 25 -37 25 -116 36 -116 15 0 -5 -18 -36 -40 -67 l-40 -58
0 -101 c0 -99 1 -103 44 -195 25 -52 48 -106 51 -120 6 -24 3 -27 -32 -32 -21
-4 -83 -9 -138 -13 -55 -4 -117 -13 -139 -20 -21 -8 -53 -14 -70 -14 -17 -1
-42 -7 -56 -15 -14 -8 -36 -14 -49 -15 -27 0 -77 -14 -130 -37 -19 -8 -68 -26
-110 -40 -46 -15 -90 -38 -111 -58 -19 -18 -56 -46 -82 -64 -27 -18 -48 -40
-48 -49 0 -23 -19 -42 -41 -42 -9 0 -22 -7 -29 -15 -16 -19 -118 -20 -145 -1
-11 7 -31 16 -45 19 -15 4 -42 18 -60 32 -68 51 -106 75 -157 102 -32 16 -56
37 -63 53 -6 15 -36 51 -66 81 -29 29 -54 61 -54 69 0 9 -12 27 -26 41 -21 20
-25 31 -21 64 7 63 30 112 72 155 l39 40 101 0 c65 0 105 -4 113 -12 15 -15
16 -154 2 -163 -5 -3 -10 -43 -10 -89 0 -80 1 -83 33 -113 40 -38 68 -53 101
-53 14 0 28 -5 31 -10 3 -5 28 -10 54 -10 37 0 52 5 69 23 12 13 22 30 22 38
0 9 11 26 25 39 60 56 74 148 30 190 -34 32 -32 51 10 91 77 73 125 161 125
225 0 38 -5 54 -27 76 -15 15 -33 28 -40 28 -7 0 -13 6 -13 13 0 20 -50 37
-106 37 -42 0 -62 -6 -96 -29 -61 -41 -97 -83 -113 -127 -7 -21 -19 -41 -27
-45 -7 -3 -23 -11 -35 -17 -29 -15 -96 -15 -111 0 -9 9 -18 9 -37 0 -14 -7
-39 -12 -54 -12 -16 0 -34 -7 -41 -15 -7 -8 -25 -15 -39 -15 -17 0 -37 -10
-52 -26 -13 -14 -36 -32 -51 -40 -16 -8 -28 -20 -28 -28 0 -7 -11 -23 -25 -36
-23 -21 -25 -31 -25 -107 0 -92 5 -106 66 -174 23 -25 44 -55 48 -66 4 -11 39
-42 79 -68 39 -27 94 -70 122 -96 27 -26 73 -56 100 -66 46 -18 216 -112 205
-113 -3 -1 -57 -10 -120 -21 -63 -11 -160 -24 -215 -28 -55 -4 -110 -13 -122
-19 -15 -8 -92 -12 -241 -12 l-219 0 -23 25 c-13 14 -29 25 -36 25 -6 0 -28
19 -48 43 -42 49 -51 59 -135 134 -35 32 -79 83 -98 113 -20 30 -44 67 -54 82
-16 23 -19 46 -19 141 0 85 -5 128 -19 168 -25 74 -89 199 -102 199 -5 0 -22
11 -37 25 -31 29 -101 35 -122 11 -6 -8 -21 -16 -32 -18 -12 -2 -24 -10 -28
-18 -4 -8 -12 -25 -18 -37 -7 -13 -12 -69 -12 -131 0 -100 2 -112 25 -146 14
-20 25 -48 25 -61 0 -16 6 -25 16 -25 9 0 14 -6 12 -12 -7 -19 -66 -21 -93 -4
-14 9 -35 16 -48 16 -14 0 -30 6 -36 14 -15 17 -117 24 -493 32 -207 4 -259 8
-268 19 -7 8 -18 15 -24 15 -15 0 -55 41 -70 72 -9 18 -21 24 -56 26 -42 3
-46 1 -59 -29 -11 -25 -12 -39 -2 -64 14 -39 15 -122 1 -130 -5 -3 -10 -19
-10 -34 0 -18 -13 -39 -40 -66 -22 -21 -40 -46 -40 -55 0 -9 -11 -27 -25 -40
l-25 -23 0 -211 c-1 -164 -4 -217 -15 -236 -20 -35 -21 -213 -1 -229 8 -6 19
-25 26 -41 7 -18 20 -30 31 -30 10 0 21 -4 24 -10 9 -14 138 -13 170 2 14 6
25 17 25 23 0 7 9 15 21 18 11 3 23 15 26 26 5 20 12 21 135 21 143 0 132 -4
229 79 27 23 39 41 39 60 0 15 5 32 12 39 9 9 9 12 0 12 -7 0 -12 15 -12 39 0
22 -6 44 -15 51 -11 9 -15 36 -15 109 -1 64 -5 104 -15 121 -8 14 -14 36 -15
50 0 27 -63 97 -107 119 -31 16 -98 14 -113 -4 -7 -8 -21 -15 -32 -15 -40 0
-113 -47 -131 -85 -10 -20 -27 -39 -37 -42 -11 -3 -20 -11 -20 -18 0 -7 -7
-18 -15 -25 -8 -7 -15 -23 -15 -36 0 -19 -5 -24 -25 -24 -14 0 -25 5 -25 10 0
6 -6 10 -13 10 -27 0 -47 115 -28 162 5 13 12 35 16 51 8 40 72 107 102 107
13 0 34 5 46 12 22 12 67 21 182 37 33 5 73 14 88 20 38 15 545 15 584 0 25
-10 53 -15 193 -38 56 -9 123 -43 171 -86 20 -18 50 -36 66 -39 20 -5 72 -49
161 -140 73 -73 132 -138 132 -144 0 -6 14 -19 30 -29 17 -9 30 -23 30 -29 0
-6 7 -17 15 -24 21 -18 19 -42 -10 -84 -20 -29 -25 -50 -25 -94 0 -54 3 -61
38 -95 31 -30 45 -37 79 -37 24 0 46 6 53 15 7 8 19 15 26 15 18 0 19 66 1 77
-8 4 -17 16 -20 26 -4 11 -16 21 -27 24 -11 3 -20 12 -20 19 0 8 -7 14 -15 14
-20 0 -19 6 5 30 11 11 29 20 40 20 12 0 34 7 51 15 21 12 53 15 117 13 l87
-3 3 -120 c1 -66 7 -124 12 -129 6 -6 10 -23 10 -38 0 -17 5 -28 14 -28 7 0
16 -8 19 -19 2 -10 16 -25 30 -32 13 -8 40 -23 58 -34 31 -17 76 -27 202 -41
45 -6 47 -5 47 19 0 13 7 30 15 37 8 7 15 27 15 46 0 18 5 36 10 39 16 10 12
122 -5 155 -18 35 -119 90 -163 90 -16 0 -35 7 -42 15 -7 8 -22 15 -35 15 -12
0 -25 3 -28 6 -10 10 12 44 28 44 8 0 18 6 22 14 4 8 28 16 53 19 25 3 91 21
148 41 57 20 118 36 136 36 19 0 39 7 46 15 7 8 24 15 39 15 19 0 40 14 71 46
25 25 65 60 90 77 25 17 64 47 87 68 35 32 88 67 166 109 9 6 25 15 35 20 9 6
25 13 35 16 9 4 17 13 17 21 0 8 6 13 13 11 18 -7 21 -96 4 -117 -8 -9 -27
-46 -41 -82 -23 -58 -26 -80 -26 -188 0 -128 5 -147 48 -193 20 -22 35 -28 67
-28 39 0 47 5 113 74 46 47 74 85 78 105 4 17 13 36 20 42 11 9 14 50 14 189
0 147 3 180 15 190 9 7 13 15 10 18 -7 8 26 42 40 42 7 0 18 7 25 15 16 20
135 20 170 0 14 -8 36 -14 49 -15 29 0 113 -24 198 -56 34 -13 76 -24 93 -24
31 0 54 -14 129 -77 21 -18 42 -33 45 -33 11 0 36 -27 36 -39 0 -6 -6 -11 -14
-11 -7 0 -19 -7 -26 -15 -7 -9 -29 -15 -54 -15 -38 0 -47 -6 -103 -62 -78 -81
-163 -208 -163 -246 0 -15 -5 -33 -12 -40 -25 -25 -42 -91 -45 -181 l-4 -94
39 -41 c22 -23 47 -54 55 -71 8 -16 27 -41 41 -54 14 -14 26 -32 26 -42 0 -9
7 -22 15 -29 8 -7 15 -24 15 -39 0 -15 5 -32 12 -39 9 -9 9 -12 0 -12 -7 0
-12 -10 -12 -23 0 -31 22 -77 38 -77 6 0 12 -8 12 -18 0 -43 79 -82 176 -89
46 -4 63 -1 73 11 8 9 20 16 27 16 8 0 22 4 32 9 9 4 46 22 82 40 36 17 85 47
110 66 25 19 59 42 76 51 17 9 39 31 48 48 32 59 43 77 65 100 17 18 21 35 21
92 0 68 -1 71 -40 109 -22 21 -40 45 -40 52 0 8 -14 13 -40 13 -29 0 -40 4
-40 15 0 8 -4 15 -10 15 -5 0 -10 11 -10 24 0 13 -7 29 -15 36 -9 8 -15 30
-15 59 -1 25 -7 57 -15 71 -8 14 -14 35 -15 48 0 12 -6 22 -14 22 -7 0 -19 7
-26 15 -18 21 -182 21 -200 0 -7 -8 -18 -15 -25 -15 -16 0 -45 -55 -45 -85 0
-13 -7 -28 -15 -35 -19 -16 -19 -106 0 -140 21 -36 21 -213 0 -230 -8 -7 -15
-19 -15 -26 0 -40 -102 9 -166 80 -84 91 -94 115 -94 213 0 108 32 196 95 264
23 25 46 55 49 67 4 12 21 29 37 37 16 9 35 28 43 43 16 30 53 52 90 52 12 0
50 11 84 25 52 21 78 25 166 25 66 0 119 -5 146 -15 23 -8 54 -15 69 -15 14 0
60 -11 101 -24 41 -14 114 -37 163 -51 l87 -26 0 -413 c0 -355 2 -415 15 -426
8 -7 15 -23 15 -36 0 -13 6 -24 13 -24 8 0 24 -11 37 -25 14 -15 35 -25 51
-25 14 0 32 -7 39 -15 10 -13 52 -15 263 -15 207 0 260 -3 304 -17 50 -16 56
-16 106 0 48 15 126 17 768 17 590 0 729 3 799 15 66 12 176 15 502 15 267 0
419 4 423 10 3 6 41 10 84 10 75 0 124 -13 130 -35 5 -19 34 -45 51 -45 9 0
27 -12 41 -26 30 -33 71 -54 103 -54 14 0 28 -5 31 -10 3 -6 21 -10 38 -10 18
-1 43 -7 57 -15 33 -19 104 -19 120 0 7 8 21 15 31 15 10 0 21 5 24 10 3 6 19
10 34 10 16 0 34 6 40 14 6 7 79 50 161 95 l150 81 447 -10 c247 -6 878 -13
1403 -17 879 -5 956 -5 969 11 9 10 29 16 56 16 26 0 48 6 55 15 7 8 24 15 39
15 36 0 101 66 101 102 0 14 7 31 15 38 19 16 20 225 1 382 l-12 107 131 89
c73 49 156 97 186 107 30 10 77 29 104 43 28 14 77 30 110 35 91 14 455 20
455 7 0 -5 13 -10 29 -10 51 0 251 -175 251 -220 0 -15 10 -36 25 -50 15 -14
25 -35 25 -51 0 -14 7 -32 15 -39 19 -16 19 -57 0 -90 -8 -14 -14 -37 -15 -52
0 -17 -5 -28 -14 -28 -17 0 -72 -61 -81 -89 -3 -12 -13 -21 -21 -21 -10 0 -14
-12 -14 -40 0 -40 15 -54 26 -25 4 8 12 15 18 15 16 0 145 136 174 184 33 56
32 166 -3 208 -14 16 -28 42 -31 56 -9 42 -26 72 -70 121 -22 25 -55 67 -73
94 -18 26 -40 47 -50 47 -10 0 -28 11 -41 25 -13 14 -29 25 -36 25 -7 0 -25
11 -41 24 l-28 24 35 31 c19 17 43 31 53 31 9 0 35 11 57 25 22 14 48 25 59
25 10 0 40 10 66 21 110 49 171 59 350 59 176 0 195 -4 195 -41 0 -23 19 -34
33 -20 15 15 67 14 67 -1 0 -7 -23 -35 -50 -61 -28 -27 -50 -57 -50 -67 0 -10
-7 -23 -15 -30 -19 -16 -19 -87 0 -120 8 -14 14 -39 15 -55 0 -17 11 -46 24
-65 13 -20 25 -44 27 -55 2 -11 14 -25 27 -31 12 -6 33 -20 45 -31 29 -27 85
-53 112 -53 28 0 75 22 75 36 0 6 7 17 15 24 8 7 15 21 15 31 0 10 8 34 17 54
16 33 16 38 0 88 -9 30 -17 66 -17 81 0 34 -20 74 -54 105 -14 14 -26 30 -26
37 0 6 -7 14 -15 18 -8 3 -15 10 -15 16 0 13 87 13 95 1 10 -17 67 -41 95 -41
15 0 33 -6 39 -14 15 -17 151 -97 221 -129 30 -14 90 -42 134 -61 46 -22 94
-36 117 -36 34 0 76 -13 131 -41 10 -5 32 -9 49 -9 18 0 41 -9 53 -20 12 -11
38 -35 59 -52 l38 -31 -4 -76 c-6 -106 -22 -143 -72 -170 -48 -25 -148 -29
-171 -7 -10 10 -14 38 -14 90 0 64 4 81 25 112 14 20 25 44 25 53 0 16 41 41
67 41 7 0 13 7 13 15 0 17 -55 22 -65 6 -7 -12 -63 -41 -79 -41 -6 0 -23 -21
-38 -46 -25 -40 -28 -55 -28 -133 l0 -87 43 -39 c58 -55 79 -65 137 -65 46 0
65 6 110 32 8 5 23 11 33 15 10 3 29 28 43 55 24 46 25 57 20 156 -3 59 -8
137 -11 175 -6 55 -4 67 8 67 8 0 20 -7 27 -15 7 -8 26 -15 42 -15 16 0 51
-11 78 -25 27 -14 55 -25 63 -25 7 0 24 -11 37 -25 13 -14 29 -25 37 -25 10 0
13 -20 13 -78 0 -64 4 -82 18 -95 10 -10 23 -17 28 -17 16 0 114 105 114 122
0 8 -7 21 -15 28 -8 7 -15 21 -15 31 0 10 -4 21 -10 24 -15 9 -12 54 4 71 8 8
29 14 47 14 42 0 93 34 190 127 42 40 82 73 89 73 6 0 56 42 110 92 121 115
135 125 237 176 45 23 84 46 88 52 3 5 19 10 34 10 16 0 48 7 71 15 23 8 71
15 105 15 34 0 79 7 98 15 26 11 73 15 159 15 68 0 195 5 282 11 l159 12 36
-44 c20 -24 66 -79 104 -122 40 -48 67 -88 67 -102 0 -12 7 -28 15 -35 12 -10
15 -30 13 -84 -3 -62 -6 -72 -26 -82 -13 -6 -29 -17 -35 -23 -6 -6 -35 -11
-64 -11 -30 0 -68 -7 -85 -16 -61 -32 -230 -2 -254 46 -7 12 -17 27 -23 33
-17 17 -14 67 4 67 8 0 15 7 15 15 0 10 10 15 29 15 17 0 33 5 36 10 3 6 22
10 42 10 19 0 48 8 64 17 26 16 29 16 47 0 10 -9 23 -17 29 -17 6 0 13 -8 17
-17 3 -10 14 -31 25 -48 11 -16 20 -37 20 -46 1 -9 8 -22 16 -29 13 -11 15 -3
15 67 0 45 -5 84 -11 90 -6 6 -17 22 -23 35 -7 15 -22 24 -41 26 -17 2 -37 10
-46 18 -14 13 -18 13 -29 -1 -8 -10 -30 -15 -60 -15 -48 0 -123 -33 -150 -65
-7 -8 -21 -15 -32 -15 -42 0 -57 -38 -58 -141 0 -73 -4 -100 -15 -109 -8 -7
-15 -18 -15 -24 0 -22 -25 -66 -37 -66 -7 0 -13 -12 -13 -27 0 -15 -5 -41 -12
-59 -9 -26 -8 -38 4 -65 22 -44 69 -59 198 -59 72 -1 113 -5 130 -15 14 -8 49
-14 78 -15 52 0 79 -12 138 -63 18 -15 36 -17 114 -15 l94 3 48 70 c32 46 48
81 48 101 0 17 7 37 15 44 19 16 19 74 0 90 -8 7 -15 23 -15 36 0 13 -4 24
-10 24 -5 0 -10 7 -10 15 0 8 -7 15 -15 15 -10 0 -15 10 -15 29 0 17 -4 33
-10 36 -5 3 -10 48 -10 98 -1 65 -5 98 -15 111 -8 11 -15 30 -15 43 0 28 -22
60 -105 158 -33 38 -82 102 -109 142 l-49 72 -56 -4 c-31 -3 -122 -10 -202
-15 -81 -6 -162 -16 -180 -22 -19 -6 -97 -14 -174 -19 -268 -18 -285 -20 -285
-35 0 -10 -14 -14 -50 -14 -42 0 -50 3 -50 18 0 10 11 29 24 41 28 26 36 64
43 205 4 95 2 107 -27 166 -4 8 -22 16 -41 18 -27 2 -40 -3 -59 -23 -13 -14
-29 -25 -36 -25 -7 0 -32 -23 -56 -51 -24 -28 -60 -70 -80 -93 -26 -30 -38
-53 -38 -74 0 -17 -5 -34 -10 -37 -5 -3 -10 -44 -10 -90 0 -46 5 -87 10 -90 6
-3 10 -15 10 -26 0 -10 7 -19 15 -19 23 0 19 -47 -5 -53 -11 -3 -23 -13 -27
-24 -4 -10 -51 -66 -106 -125 -72 -78 -115 -115 -160 -139 -64 -33 -107 -61
-142 -90 -59 -50 -379 -35 -575 27 -25 8 -66 14 -92 14 -26 0 -50 4 -53 10 -3
5 -19 10 -36 10 -25 0 -29 4 -29 28 0 31 16 52 40 52 9 0 27 11 40 25 13 14
29 25 35 25 6 0 29 18 50 40 21 22 47 40 57 40 13 0 18 8 18 30 0 33 -19 40
-40 15 -7 -8 -20 -15 -30 -15 -10 0 -23 -7 -30 -15 -7 -8 -25 -15 -39 -15 -18
0 -39 -12 -62 -36 -18 -20 -45 -40 -57 -45 -13 -5 -26 -18 -29 -29 -3 -11 -12
-20 -19 -20 -8 0 -14 -10 -14 -25 0 -24 -3 -25 -52 -25 -65 0 -120 19 -156 52
-15 14 -47 36 -72 48 -25 12 -54 30 -65 40 -11 9 -36 23 -55 30 -19 7 -87 37
-150 65 -376 172 -353 165 -575 165 -136 0 -155 -2 -164 -17 -8 -14 -14 -16
-28 -7 -27 17 -27 47 2 74 14 13 25 29 25 36 0 6 7 17 15 24 8 7 15 26 15 43
0 17 6 38 14 46 25 29 36 109 36 256 0 133 -2 146 -17 143 -10 -2 -23 -14 -29
-26 -6 -13 -17 -29 -23 -35 -6 -6 -11 -37 -11 -68 0 -32 -4 -61 -10 -64 -5 -3
-10 -32 -10 -63 0 -39 -9 -76 -26 -117 -15 -33 -28 -73 -31 -90 -11 -73 -69
-145 -109 -137 -29 5 -74 84 -74 129 -1 15 -7 39 -14 53 -12 21 -12 29 0 52 8
15 14 40 14 56 0 18 10 38 26 53 14 13 39 49 54 79 16 30 44 71 64 89 25 24
36 44 36 63 0 35 -7 35 -32 3 -11 -14 -25 -25 -32 -25 -24 0 -186 -176 -192
-208 -4 -18 -13 -37 -20 -43 -8 -6 -14 -20 -14 -30 0 -10 -4 -21 -10 -24 -5
-3 -10 -33 -10 -65 0 -32 5 -62 10 -65 5 -3 10 -19 10 -34 0 -17 10 -37 26
-52 40 -37 54 -73 54 -134 l0 -55 -65 0 c-51 0 -65 -3 -65 -15 0 -10 -10 -15
-28 -15 -19 0 -40 -12 -67 -40 -21 -22 -44 -40 -51 -40 -6 0 -17 -6 -23 -14
-7 -9 -42 -16 -89 -20 -244 -19 -241 -19 -347 -72 -55 -28 -118 -57 -140 -64
-22 -7 -49 -20 -60 -30 -11 -10 -43 -29 -72 -44 -28 -14 -54 -30 -58 -36 -10
-16 -115 -13 -115 4 0 7 -7 19 -15 26 -22 18 -22 692 0 730 8 14 14 51 15 82
0 31 5 60 10 63 6 3 10 37 10 76 l0 69 -39 0 c-22 0 -44 -6 -51 -15 -7 -8 -17
-15 -23 -15 -15 0 -67 -51 -67 -66 0 -6 -7 -17 -15 -24 -11 -9 -15 -32 -15
-81 0 -37 -4 -71 -10 -74 -6 -4 -10 -73 -10 -173 -1 -131 -4 -171 -15 -186
-10 -13 -15 -44 -15 -93 0 -72 0 -73 -26 -73 l-25 0 5 178 c6 223 18 351 34
379 7 12 12 57 12 106 0 63 4 88 15 97 8 7 15 20 15 29 0 19 70 91 88 91 7 0
12 15 12 40 l0 40 -79 0 c-58 0 -82 -4 -91 -15 -8 -10 -30 -15 -65 -15 -33 0
-57 -5 -64 -14 -14 -17 -87 -22 -486 -34 -157 -5 -285 -13 -305 -20 -25 -9
-229 -12 -751 -12 -611 0 -723 -2 -759 -15 -32 -11 -91 -15 -246 -15 -129 0
-204 -4 -204 -10 0 -5 -23 -10 -50 -10 -56 0 -112 -24 -149 -64 -13 -14 -37
-28 -54 -32 -46 -10 -117 -80 -117 -115 0 -24 4 -29 24 -29 13 0 26 7 30 15 3
8 14 15 25 15 11 0 33 11 49 25 17 14 36 25 44 25 8 0 25 11 38 25 13 14 31
25 41 25 9 0 22 7 29 15 7 8 29 15 49 15 20 0 43 6 49 13 21 20 280 28 1247
35 681 6 919 10 945 20 23 8 99 12 222 12 114 0 189 4 193 10 3 6 37 10 74 10
49 0 72 4 81 15 8 10 31 15 68 15 44 0 53 -3 44 -12 -7 -7 -12 -40 -12 -79 0
-37 -5 -80 -11 -96 -10 -25 -16 -58 -38 -193 -4 -25 -13 -55 -19 -67 -17 -31
-17 -496 0 -526 7 -12 16 -58 20 -102 15 -154 24 -210 36 -232 7 -13 12 -65
12 -136 0 -172 5 -169 -355 -163 -557 11 -860 22 -895 34 -26 9 -221 12 -740
12 -592 -1 -709 -3 -730 -15 -14 -8 -48 -14 -77 -15 -28 0 -55 -4 -58 -10 -3
-5 -21 -10 -38 -10 -18 -1 -43 -7 -57 -15 -14 -8 -36 -14 -50 -15 -17 0 -40
-14 -65 -40 -21 -22 -44 -40 -50 -40 -13 0 -36 -36 -28 -44 13 -13 62 -5 111
19 29 14 63 25 77 25 14 0 48 11 76 25 102 52 408 98 649 97 119 0 328 -18
370 -31 19 -6 60 -11 90 -12 30 0 123 -8 205 -18 l150 -18 -290 5 c-219 3
-297 8 -319 18 -43 21 -437 20 -496 -1 -23 -8 -61 -15 -83 -15 -39 0 -175 -37
-245 -66 -18 -8 -43 -14 -55 -14 -13 0 -39 -16 -60 -38 -36 -37 -47 -62 -27
-62 6 0 10 -13 10 -28 0 -44 -73 -102 -130 -102 l-30 0 21 40 c12 22 25 40 30
40 5 0 9 11 9 25 0 24 -3 25 -56 25 -30 0 -65 5 -77 12 -12 6 -37 11 -56 9
-18 -1 -44 5 -57 14 -13 8 -39 15 -58 15 l-35 0 -3 -77 c-3 -76 -4 -78 -29
-81 -14 -2 -31 4 -39 12 -7 9 -19 16 -26 16 -8 0 -14 7 -14 15 0 8 -7 15 -15
15 -8 0 -15 4 -15 8 0 12 34 42 48 42 7 0 12 7 12 16 0 8 5 12 10 9 6 -3 10
-1 10 4 0 15 -32 51 -45 51 -7 0 -22 11 -35 25 -13 14 -35 25 -49 25 -14 1
-37 7 -51 15 -37 21 -576 21 -604 0 -15 -11 -49 -15 -132 -15 -73 0 -126 -5
-154 -15 -61 -21 -270 -21 -270 0 0 12 14 15 69 15 46 0 72 4 80 14 7 8 41 16
84 20 144 12 233 23 260 35 16 6 87 11 165 11 100 1 144 5 162 15 33 19 112
19 174 0 27 -8 70 -15 95 -15 25 0 115 -18 200 -39 l154 -39 -61 61 c-37 38
-79 68 -104 78 -24 9 -59 22 -78 30 -54 21 -458 25 -518 4 -25 -8 -71 -15
-103 -15 -32 0 -70 -5 -86 -12 -15 -6 -73 -15 -128 -19 -134 -11 -224 -24
-258 -38 -17 -7 -101 -11 -215 -11 -133 0 -203 -4 -242 -15 -73 -20 -488 -20
-1145 0 -269 8 -505 15 -522 15 l-33 0 0 796 0 796 38 -6 c20 -3 114 -10 207
-16 94 -6 190 -13 215 -17 92 -11 1223 -14 1320 -3 52 6 383 17 735 25 l640
14 25 -32 c75 -96 128 -152 150 -157 14 -3 29 -16 35 -28 8 -17 18 -22 47 -22
42 0 46 6 23 36 -8 10 -15 30 -15 43 0 13 -16 41 -35 62 -19 22 -35 44 -35 49
0 6 -10 15 -22 20 -13 6 -30 14 -38 18 -49 28 -68 32 -149 32 -66 0 -92 4
-101 15 -11 13 -171 15 -1330 15 -1159 0 -1319 2 -1330 15 -10 12 -37 15 -121
15 -61 0 -110 4 -114 10 -3 6 -26 10 -49 10 -27 0 -48 6 -56 15 -7 8 -20 15
-29 15 -10 0 -28 11 -41 25 -13 14 -29 25 -36 25 -6 0 -17 7 -24 15 -7 8 -21
15 -31 15 -17 0 -19 -9 -19 -85z m-1380 -140 c7 -8 19 -15 26 -15 8 0 14 -6
14 -13 0 -8 12 -24 26 -38 34 -32 104 -171 104 -208 0 -16 7 -34 15 -41 17
-14 20 -46 5 -55 -19 -12 -41 26 -79 135 -7 19 -13 41 -15 47 -1 7 -14 26 -29
41 -15 15 -27 35 -27 43 0 9 -11 26 -25 39 -20 19 -27 21 -40 10 -19 -16 -19
-50 0 -76 8 -10 15 -31 15 -45 0 -15 7 -32 15 -39 8 -7 15 -21 15 -31 0 -10 5
-21 10 -24 6 -3 10 -19 10 -34 0 -16 7 -34 15 -41 8 -7 15 -20 15 -29 0 -9 5
-22 11 -28 6 -6 8 -16 5 -22 -8 -12 -38 13 -65 52 -9 14 -25 37 -35 52 -18 25
-26 57 -43 167 -3 21 -11 42 -19 49 -9 7 -14 31 -14 65 l0 54 39 0 c22 0 44
-6 51 -15z m-1010 -53 c0 -35 -7 -46 -64 -100 -35 -34 -76 -64 -92 -67 -16 -3
-44 -13 -62 -21 -41 -17 -42 -17 -42 1 0 8 -7 15 -15 15 -10 0 -15 10 -15 29
0 16 7 34 15 41 8 7 15 19 15 27 0 27 31 74 63 93 25 16 50 20 115 20 l82 0 0
-38z m-1746 -117 c6 -11 14 -22 18 -25 17 -13 88 -151 103 -200 5 -19 -1 -14
-25 18 -17 23 -38 42 -46 42 -8 0 -14 5 -14 12 0 20 -32 48 -57 48 -19 0 -23
-5 -23 -30 0 -31 51 -143 70 -155 16 -10 12 -55 -5 -55 -8 0 -15 6 -15 13 0 7
-18 30 -39 51 -34 33 -40 46 -45 95 -7 70 -7 82 0 154 6 58 6 58 36 55 18 -2
36 -11 42 -23z m15716 21 c0 -2 -8 -21 -19 -43 -10 -21 -29 -62 -42 -92 -32
-73 -55 -101 -85 -101 -37 0 -43 24 -15 70 5 8 17 34 26 57 10 23 28 52 41 64
13 12 24 28 24 36 0 8 13 13 35 13 19 0 35 -2 35 -4z m-14195 -196 c3 -5 19
-10 36 -10 19 0 29 -5 29 -15 0 -8 7 -15 15 -15 12 0 15 -14 15 -65 0 -51 -3
-65 -15 -65 -8 0 -15 -7 -15 -15 0 -11 -13 -15 -54 -15 -35 0 -58 5 -66 15 -7
8 -18 15 -24 15 -17 0 -36 49 -36 94 0 51 31 86 76 86 18 0 36 -4 39 -10z
m645 -432 c-1 -7 -7 -24 -15 -38 -8 -14 -14 -37 -15 -52 0 -15 -4 -30 -10 -33
-13 -8 -11 -110 3 -159 l12 -39 27 59 c15 33 33 74 40 92 7 17 19 32 27 32 32
0 -10 -124 -59 -175 -42 -44 -80 -47 -97 -8 -20 41 -16 160 6 220 26 72 82
141 81 101z m11240 -82 c0 -13 7 -29 15 -36 9 -7 15 -29 15 -50 0 -37 27 -100
43 -100 4 0 7 -7 7 -15 0 -9 9 -15 25 -15 15 0 25 6 25 14 0 7 7 19 15 26 8 7
15 25 15 41 0 19 5 29 15 29 11 0 15 -11 15 -39 0 -22 -6 -44 -15 -51 -8 -7
-15 -20 -15 -29 0 -9 -5 -22 -12 -29 -16 -16 -118 -16 -118 0 0 6 -10 22 -22
35 -12 13 -28 40 -36 61 -20 51 -27 149 -12 167 19 23 40 18 40 -9z m-14245
-33 c5 -13 15 -23 22 -23 9 0 13 -16 13 -50 0 -38 -4 -50 -15 -50 -8 0 -15 -7
-15 -15 0 -8 -6 -15 -14 -15 -7 0 -19 -7 -26 -15 -10 -12 -36 -15 -116 -15
l-104 0 0 44 c0 25 5 48 10 51 6 3 10 14 10 23 0 19 49 72 67 72 7 0 13 5 13
10 0 7 27 10 73 8 64 -3 73 -6 82 -25z m12035 -99 c0 -67 -2 -75 -15 -64 -10
9 -15 32 -15 76 0 50 3 64 15 64 12 0 15 -15 15 -76z m5822 -111 c23 -22 28
-35 28 -73 0 -25 -7 -55 -15 -66 -8 -10 -15 -30 -15 -44 0 -34 -17 -50 -52
-50 -18 0 -28 -5 -28 -15 0 -11 -11 -15 -39 -15 -22 0 -44 6 -51 15 -7 8 -20
15 -30 15 -34 0 -41 24 -38 131 3 102 3 104 28 107 14 2 29 8 35 13 5 5 40 9
79 9 62 0 73 -3 98 -27z m-378 -10 c37 -19 52 -63 21 -63 -8 0 -15 -5 -15 -11
0 -21 -41 -69 -59 -69 -10 0 -24 -7 -31 -15 -9 -11 -32 -15 -79 -15 -61 0 -70
3 -94 28 -20 21 -27 38 -27 68 0 22 5 45 12 52 7 7 41 12 83 12 42 1 80 6 95
15 33 19 52 18 94 -2z m-17781 -72 c12 -20 17 -51 17 -103 l0 -74 -45 -44
c-39 -39 -48 -43 -63 -32 -9 7 -25 15 -34 18 -10 4 -18 12 -18 18 0 7 -11 23
-25 36 -19 18 -25 34 -25 64 0 36 6 47 52 93 44 43 59 52 88 53 29 0 39 -6 53
-29z m357 -3 c0 -6 7 -20 17 -30 15 -17 15 -21 -3 -58 -10 -22 -26 -42 -35
-45 -9 -3 -24 -14 -34 -25 -22 -25 -96 -28 -115 -5 -7 8 -19 15 -26 15 -9 0
-14 11 -14 29 0 16 -7 34 -15 41 -23 19 -18 49 9 60 13 5 27 14 31 19 9 16
185 15 185 -1z m4164 -17 c31 -32 31 -32 -2 -119 -19 -49 -51 -95 -105 -149
-25 -26 -78 -31 -97 -9 -16 20 -8 169 12 218 25 66 54 88 113 88 44 0 55 -4
79 -29z m-2161 -123 c64 -36 72 -68 36 -137 -28 -54 -42 -64 -86 -58 -100 13
-163 59 -163 119 0 33 3 38 24 38 13 0 26 7 30 15 3 10 19 15 45 15 22 0 43 5
46 10 8 14 41 13 68 -2z m10069 -75 c20 -18 23 -50 7 -73 -8 -11 -12 -12 -16
-2 -2 6 -11 12 -19 12 -9 0 -14 11 -14 33 0 49 12 58 42 30z m-7145 -50 c-4
-3 -1 -13 7 -22 12 -13 12 -23 3 -54 -17 -52 -31 -41 -35 26 -3 48 0 57 14 57
10 0 14 -3 11 -7z m-629 -73 c43 0 72 -36 71 -89 -1 -58 -23 -96 -80 -137 -72
-53 -106 -44 -211 55 -33 31 -48 53 -48 71 0 28 16 50 37 50 6 0 29 11 49 25
20 14 51 25 69 25 18 0 38 7 45 15 11 13 14 13 27 0 8 -8 26 -15 41 -15z
m7882 -65 c7 -8 19 -15 26 -15 8 0 14 -4 14 -10 0 -5 -7 -10 -15 -10 -8 0 -15
-8 -15 -17 0 -9 -17 -34 -37 -55 -28 -28 -45 -38 -69 -38 -17 0 -37 -6 -43
-13 -7 -9 -37 -15 -83 -16 -39 -1 -79 -6 -89 -12 -25 -13 -1225 -12 -1250 2
-11 5 -63 11 -116 12 -67 1 -98 6 -101 15 -3 9 144 12 710 12 599 1 717 3 738
15 16 9 55 14 110 15 67 0 92 4 118 20 28 18 32 25 32 65 0 43 1 45 29 45 16
0 34 -7 41 -15z m-1613 -31 c-3 -3 -12 -4 -19 -1 -8 3 -5 6 6 6 11 1 17 -2 13
-5z m-5615 -61 c48 -46 34 -103 -26 -103 -40 0 -76 35 -76 75 0 60 53 75 102
28z m1456 -18 c41 -4 62 -11 59 -18 -3 -9 -141 -13 -524 -15 -454 -2 -522 0
-533 13 -7 8 -28 15 -47 15 -21 0 -32 4 -28 10 7 12 964 7 1073 -5z m3605 0
c21 -4 36 -12 34 -19 -3 -8 -86 -13 -278 -16 -186 -4 -283 -9 -302 -18 -41
-18 -208 -16 -233 3 -10 8 -36 15 -56 15 -27 0 -38 4 -38 15 0 12 16 15 83 15
45 0 89 5 97 10 17 12 633 7 693 -5z m-1893 -20 c8 -9 30 -15 57 -15 66 0 51
-24 -18 -28 -30 -2 -58 -8 -63 -13 -17 -16 -303 -11 -335 6 -16 8 -32 11 -37
7 -5 -4 -2 1 5 11 7 9 25 17 40 17 14 0 49 7 76 14 72 20 259 21 275 1z
m-4143 -37 c13 -12 23 -30 23 -40 0 -10 7 -18 15 -18 9 0 15 -9 15 -25 0 -16
-6 -25 -15 -25 -8 0 -15 -6 -15 -12 0 -19 -48 -38 -92 -38 -25 0 -38 5 -38 13
0 8 -11 24 -25 37 -21 19 -25 33 -25 77 l0 53 67 0 c55 0 71 -4 90 -22z m3492
10 c6 -7 16 -13 22 -13 5 0 9 -4 9 -10 0 -5 -22 -11 -50 -13 -37 -2 -50 1 -50
10 0 33 45 49 69 26z m-2161 -55 c2 -9 -10 -13 -43 -13 -42 0 -46 2 -35 16 15
18 71 15 78 -3z m1790 0 c3 -10 -13 -13 -58 -13 -55 0 -61 2 -50 15 16 19 101
17 108 -2z m-1358 -48 c0 -12 -17 -15 -90 -15 -73 0 -90 3 -90 15 0 12 17 15
90 15 73 0 90 -3 90 -15z"/>
<path d="M15593 2475 c-18 -18 -33 -35 -33 -39 0 -3 25 -6 55 -6 42 0 55 -3
55 -15 0 -10 10 -15 29 -15 17 0 33 -4 36 -10 3 -5 14 -10 23 -10 17 0 72 -48
72 -63 0 -15 29 -39 40 -32 5 3 10 21 10 39 0 34 -33 76 -61 76 -8 0 -24 18
-37 40 -18 32 -28 40 -50 40 -16 0 -37 7 -48 15 -29 22 -56 16 -91 -20z"/>
<path d="M15458 2373 c-41 -42 -48 -54 -48 -89 0 -30 6 -46 24 -63 14 -13 30
-36 37 -53 7 -17 28 -37 50 -49 24 -12 39 -27 39 -37 0 -10 14 -31 30 -47 30
-28 30 -30 30 -137 0 -70 4 -107 10 -103 6 3 10 -1 10 -9 0 -9 4 -16 10 -16 5
0 26 -11 46 -25 30 -20 49 -25 100 -25 34 0 66 5 69 10 3 6 20 10 36 10 60 0
189 82 189 121 0 9 7 22 15 29 19 16 19 44 1 78 -27 54 -46 103 -46 122 0 11
-5 20 -11 20 -8 0 -8 5 1 15 9 11 32 15 79 15 66 0 68 -1 108 -42 58 -61 63
-75 63 -182 0 -86 2 -96 22 -110 20 -14 24 -14 40 1 10 9 18 28 18 43 0 15 7
33 15 40 8 7 15 29 15 50 0 21 -7 43 -15 50 -8 7 -15 18 -15 26 0 17 -55 100
-94 142 -21 23 -39 32 -62 32 -17 0 -37 7 -44 15 -17 21 -162 21 -179 1 -12
-14 -27 -17 -146 -34 -33 -4 -70 -13 -82 -20 -31 -17 -108 -15 -123 3 -7 8
-24 15 -39 15 -18 0 -39 13 -64 38 -35 36 -36 39 -39 125 l-3 88 -47 -48z
m522 -357 c0 -25 -4 -48 -10 -51 -5 -3 -10 -25 -10 -49 0 -45 -13 -66 -41 -66
-9 0 -22 -7 -29 -15 -18 -22 -123 -20 -161 2 -25 15 -29 23 -28 58 1 71 56
132 120 134 15 1 32 8 39 16 8 10 31 15 66 15 l54 0 0 -44z"/>
<path d="M14535 2148 c-6 -13 -20 -27 -32 -33 -13 -5 -23 -19 -23 -30 0 -11
-12 -47 -25 -80 -35 -85 -31 -155 9 -155 15 0 46 57 46 83 1 12 7 33 15 47 8
14 14 39 15 57 0 17 5 35 10 38 12 7 14 95 2 95 -4 0 -12 -10 -17 -22z"/>
<path d="M5475 1820 c-15 -16 -32 -27 -37 -24 -4 3 -8 -2 -8 -10 0 -9 -7 -16
-15 -16 -11 0 -15 -11 -15 -40 0 -27 4 -40 14 -40 7 0 19 -7 26 -15 16 -19
200 -22 200 -4 0 7 12 23 27 36 22 21 24 28 15 42 -7 9 -17 27 -22 39 -6 13
-19 26 -30 29 -11 3 -20 12 -20 19 0 10 -15 14 -53 14 -46 0 -57 -4 -82 -30z"/>
<path d="M9514 1478 c7 -486 13 -603 32 -618 8 -8 14 -30 14 -56 0 -32 4 -44
15 -44 8 0 15 -4 15 -10 0 -5 5 -10 11 -10 7 0 8 99 5 318 -8 466 -14 578 -32
592 -10 9 -14 33 -14 80 0 48 -4 71 -15 80 -8 7 -15 19 -15 26 0 8 -5 14 -10
14 -8 0 -9 -117 -6 -372z"/>
<path d="M13246 1623 c-3 -10 -11 -26 -18 -35 -10 -15 -10 -21 0 -35 6 -10 16
-27 21 -38 19 -43 118 -115 159 -115 42 0 52 17 52 89 0 63 -1 67 -42 108 -41
41 -44 43 -104 43 -50 0 -63 -3 -68 -17z"/>
<path d="M5372 1267 c-29 -31 -33 -151 -4 -161 9 -3 24 -10 32 -15 8 -5 34
-17 58 -27 39 -16 43 -16 60 -1 10 10 23 17 28 17 6 0 22 13 37 28 28 29 35
56 17 67 -5 3 -10 19 -10 34 0 30 -27 61 -53 61 -9 0 -19 5 -22 10 -3 6 -32
10 -64 10 -47 0 -61 -4 -79 -23z"/>
<path d="M13970 1226 c-6 -8 -21 -16 -33 -18 -13 -2 -30 -18 -42 -40 -11 -20
-30 -42 -42 -47 -13 -6 -23 -17 -23 -25 0 -7 -7 -19 -15 -26 -12 -10 -15 -37
-15 -121 0 -83 -3 -109 -13 -109 -7 0 -31 -18 -52 -40 -21 -22 -46 -40 -55
-40 -9 0 -39 -24 -68 -53 l-52 -53 0 -75 0 -75 68 -67 c37 -37 72 -67 79 -67
6 0 16 -7 23 -15 17 -20 93 -20 110 0 20 24 153 21 190 -5 17 -11 43 -29 60
-40 16 -11 40 -20 53 -20 14 0 30 -7 37 -15 7 -8 25 -15 40 -15 15 0 33 7 40
15 7 8 20 15 29 15 19 0 62 42 80 77 6 12 11 65 11 117 0 79 -3 96 -15 96 -8
0 -15 5 -15 12 0 6 -11 1 -25 -12 -23 -21 -25 -31 -25 -104 0 -78 -1 -81 -27
-94 -15 -6 -48 -12 -75 -12 -39 0 -53 5 -78 30 -25 25 -30 37 -30 78 0 30 5
54 14 61 17 14 25 52 35 156 5 64 14 94 44 152 20 40 37 79 37 87 0 7 7 19 15
26 28 23 19 58 -41 162 -7 11 -34 42 -60 69 -45 46 -51 49 -100 49 -33 0 -56
-5 -64 -14z m90 -75 c0 -6 12 -16 28 -23 21 -10 29 -23 35 -58 21 -110 7 -183
-46 -237 -23 -24 -47 -43 -54 -43 -14 0 -119 109 -116 120 1 5 -4 14 -12 20
-11 9 -15 33 -15 84 0 63 3 75 23 93 12 11 30 23 40 26 9 4 17 11 17 17 0 5
22 10 50 10 28 0 50 -4 50 -9z m-129 -417 c76 -36 129 -89 129 -130 0 -25 -10
-41 -49 -77 -56 -53 -55 -52 -233 -73 -50 -6 -108 11 -108 32 0 6 -7 17 -15
24 -10 8 -15 30 -15 64 0 44 4 56 28 79 15 15 33 27 38 27 6 0 23 14 39 30 20
20 39 30 59 30 17 0 38 5 46 10 20 13 19 13 81 -16z"/>
<path d="M13475 1109 c-16 -10 -45 -26 -62 -36 -18 -9 -33 -24 -33 -33 0 -9
-5 -21 -12 -28 -9 -9 -9 -12 0 -12 7 0 12 -7 12 -15 0 -12 16 -15 88 -15 73 0
92 3 105 18 20 22 23 112 5 130 -18 18 -69 13 -103 -9z"/>
</g>
</svg>
