<?xml version="1.0" standalone="no"?>
<!DOCTYPE svg PUBLIC "-//W3C//DTD SVG 20010904//EN"
 "http://www.w3.org/TR/2001/REC-SVG-20010904/DTD/svg10.dtd">
<svg version="1.0" xmlns="http://www.w3.org/2000/svg"
 width="300.000000pt" height="388.000000pt" viewBox="0 0 300.000000 388.000000"
 preserveAspectRatio="xMidYMid meet">

<g transform="translate(0.000000,388.000000) scale(0.100000,-0.100000)"
fill="#000000" stroke="none">
<path d="M1541 3334 c0 -11 3 -14 6 -6 3 7 2 16 -1 19 -3 4 -6 -2 -5 -13z"/>
<path d="M1471 3034 c0 -11 3 -14 6 -6 3 7 2 16 -1 19 -3 4 -6 -2 -5 -13z"/>
<path d="M1457 2991 c-4 -17 -3 -21 5 -13 5 5 8 16 6 23 -3 8 -7 3 -11 -10z"/>
<path d="M1772 2835 c-23 -29 -61 -45 -105 -45 -25 0 -29 3 -17 10 11 8 4 10
-28 8 -50 -2 -65 -16 -85 -78 -18 -54 -33 -191 -16 -148 17 45 109 55 161 17
15 -10 34 -19 42 -19 19 0 46 -38 47 -65 0 -11 3 -14 6 -8 9 23 33 -13 33 -50
0 -23 6 -37 16 -41 14 -5 15 -4 4 9 -14 16 -6 80 11 91 5 3 16 0 24 -6 11 -10
13 -8 10 7 -2 10 -6 26 -10 36 -6 14 -2 17 21 18 l29 1 -30 7 c-25 5 -27 8
-12 14 10 4 30 7 43 7 13 0 24 4 24 8 0 5 -13 7 -30 4 -18 -3 -30 0 -30 7 0 6
5 11 10 11 6 0 10 4 10 10 0 5 -7 7 -15 4 -25 -10 -18 32 8 49 25 16 63 5 51
-15 -10 -15 30 7 46 26 7 9 19 16 26 16 19 0 18 26 -2 34 -33 13 -108 -24
-154 -76 -19 -21 -74 -14 -66 9 3 8 -1 28 -10 44 -16 32 -14 105 3 102 5 -1
10 5 10 13 0 19 -2 18 -25 -11z m-122 -114 c0 12 2 12 9 0 6 -9 6 -23 -1 -35
-11 -20 -11 -20 -19 2 -5 12 -11 22 -14 22 -4 0 -4 -4 -1 -9 3 -5 -1 -11 -8
-14 -8 -3 -17 -1 -20 6 -5 9 -7 9 -12 0 -7 -17 -25 -17 -21 -1 6 35 45 51 70
30 14 -12 17 -13 17 -1z m69 -42 c-8 -5 -8 -8 1 -14 6 -4 14 -5 17 -1 7 7 33
-19 33 -33 0 -6 4 -11 8 -11 4 0 13 -18 18 -40 9 -32 8 -40 -4 -45 -11 -4 -13
0 -9 15 3 11 1 18 -3 15 -5 -3 -11 8 -15 25 -4 16 -20 39 -36 51 -16 11 -29
28 -30 37 0 11 -3 12 -6 5 -6 -16 -23 -17 -23 -3 0 6 6 17 13 24 10 12 15 12
30 -2 12 -11 14 -18 6 -23z m1 -80 c0 -5 -4 -9 -10 -9 -5 0 -10 7 -10 16 0 8
5 12 10 9 6 -3 10 -10 10 -16z"/>
<path d="M1838 2838 c11 -14 10 -17 -5 -21 -10 -2 3 -3 30 -2 26 1 50 5 53 8
4 3 -7 4 -22 3 -17 -2 -38 3 -49 13 -18 15 -19 15 -7 -1z"/>
<path d="M1401 2734 c0 -11 3 -14 6 -6 3 7 2 16 -1 19 -3 4 -6 -2 -5 -13z"/>
<path d="M2016 2601 c17 -4 37 -11 45 -15 8 -4 5 0 -5 8 -11 9 -31 16 -45 15
-24 -1 -24 -2 5 -8z"/>
<path d="M2090 2576 c0 -2 8 -10 18 -17 15 -13 16 -12 3 4 -13 16 -21 21 -21
13z"/>
<path d="M1490 2484 c0 -33 31 -66 50 -54 21 14 33 12 27 -3 -3 -8 1 -14 9
-14 8 0 14 5 14 11 1 6 7 0 15 -14 l14 -25 1 26 c0 41 -37 76 -95 89 -33 7
-35 6 -35 -16z m64 -9 c11 -8 15 -15 10 -15 -6 0 -14 4 -19 9 -6 5 -19 11 -30
14 l-20 5 20 1 c11 0 29 -6 39 -14z"/>
<path d="M1718 2460 c-34 -10 -56 -31 -50 -48 2 -8 9 -9 21 -3 9 5 23 9 31 9
8 -1 24 0 34 0 20 2 20 2 0 17 -11 8 -14 15 -6 15 6 0 12 5 12 10 0 11 -5 11
-42 0z"/>
<path d="M1700 2400 c-13 -8 -12 -10 3 -10 9 0 17 5 17 10 0 12 -1 12 -20 0z"/>
<path d="M1450 2331 c-7 -36 -17 -74 -22 -83 -6 -12 -3 -28 7 -47 20 -40 20
-41 -14 -41 -43 0 -77 -15 -114 -52 -35 -36 -63 -48 -54 -25 3 8 1 19 -4 24
-14 14 -14 65 -1 90 6 11 8 23 5 27 -9 9 11 8 23 -1 5 -5 1 0 -9 10 -11 9 -14
17 -7 17 7 0 9 8 5 22 -6 17 -4 20 9 15 14 -5 15 -3 6 12 -5 11 -8 34 -5 53 5
33 5 33 -10 -6 -8 -21 -19 -44 -24 -50 -5 -6 -12 -26 -16 -43 -3 -18 -11 -33
-15 -33 -5 0 -7 -7 -4 -15 3 -8 1 -28 -4 -45 -8 -21 -8 -30 0 -30 6 0 6 -6 -2
-16 -11 -12 -11 -15 1 -12 8 2 15 -7 17 -21 3 -16 0 -21 -9 -16 -9 6 -11 1 -7
-19 5 -23 0 -30 -31 -46 -20 -11 -33 -19 -28 -20 10 0 -19 -57 -34 -66 -7 -4
-9 -3 -5 4 3 5 0 9 -6 8 -25 -3 -35 -16 -35 -42 0 -17 2 -22 8 -13 4 7 6 16 4
19 -2 3 5 6 15 6 17 0 17 -2 -2 -29 -11 -15 -26 -26 -32 -24 -19 8 -37 -28
-23 -44 10 -11 9 -11 -3 -2 -12 9 -20 6 -39 -13 -20 -21 -22 -27 -10 -35 11
-7 10 -9 -5 -9 -11 0 -29 -8 -40 -19 -12 -10 -34 -24 -51 -30 -28 -10 -26 -11
23 -7 28 1 52 0 52 -3 0 -3 20 -5 45 -3 25 2 43 8 40 12 -3 5 14 11 37 15 54
9 67 17 42 25 -11 4 -1 7 26 6 25 0 62 8 84 19 l39 19 23 -30 c13 -16 31 -45
40 -64 9 -19 22 -42 29 -50 18 -22 44 -109 48 -160 3 -29 8 -44 16 -42 7 1 10
-2 6 -8 -4 -6 -13 -5 -25 3 -23 14 -25 23 -7 30 6 3 2 4 -10 4 -12 -1 -19 -5
-17 -9 9 -15 -31 -3 -67 20 -20 12 -45 22 -56 22 -10 0 -24 5 -31 12 -9 9 -12
9 -12 0 0 -17 -45 -15 -59 2 -13 16 -96 17 -120 2 -12 -8 -11 -11 4 -23 26
-18 27 -39 2 -40 -11 -1 -25 -9 -29 -18 -7 -11 -18 -13 -41 -9 -35 7 -48 7
-91 5 -16 0 -26 -4 -23 -8 4 -3 -1 -12 -11 -20 -16 -12 -16 -13 2 -6 13 4 17
3 12 -5 -4 -7 -17 -12 -29 -13 -13 -1 -6 -5 18 -11 22 -6 42 -14 45 -19 3 -4
21 -6 40 -5 19 1 41 -3 48 -8 9 -7 16 -5 23 5 7 11 9 11 9 -3 0 -10 -5 -18
-10 -18 -6 0 -8 -10 -5 -22 3 -13 1 -30 -5 -38 -8 -13 -11 -13 -22 3 -13 17
-14 17 -36 -3 -12 -12 -19 -26 -16 -32 4 -6 3 -8 -3 -5 -16 10 -36 -19 -28
-42 7 -22 -22 -37 -62 -32 -16 2 -23 -3 -23 -14 0 -22 30 -32 44 -13 6 8 21
17 32 20 17 4 21 2 16 -14 -3 -13 0 -18 9 -16 8 2 15 -1 15 -7 0 -5 -6 -9 -13
-7 -7 2 -13 -5 -13 -15 0 -15 2 -16 10 -3 8 13 10 13 10 1 0 -11 4 -10 13 4
17 22 81 29 73 8 -6 -16 10 -18 19 -2 4 6 -2 21 -14 33 -26 28 -26 33 0 47 13
7 19 7 15 1 -4 -7 10 -9 40 -7 l46 3 -27 -28 c-35 -37 -32 -75 7 -75 15 -1 30
-4 34 -8 4 -4 12 -7 18 -7 6 0 4 5 -4 10 -11 7 -11 10 -2 10 8 0 10 5 6 13 -4
6 2 4 14 -6 12 -11 18 -26 15 -35 -4 -14 -3 -15 5 -2 6 8 9 17 7 20 -2 4 2 7
10 7 8 0 13 -3 11 -6 -6 -9 21 -31 28 -23 4 3 4 -1 0 -11 -8 -22 28 -24 46 -2
7 8 19 15 26 15 8 0 14 6 14 13 0 7 3 8 8 2 4 -5 17 -11 29 -11 15 -1 20 3 15
14 -4 12 -1 14 14 7 10 -4 30 -9 44 -11 14 -1 28 -3 31 -3 3 -1 6 -18 7 -38 2
-46 16 -62 42 -45 16 10 22 8 35 -10 l15 -22 0 22 c0 12 6 22 13 22 8 1 6 5
-4 13 -12 9 -13 15 -5 22 14 13 69 16 76 5 3 -5 6 17 6 48 1 32 6 83 12 116
12 58 74 210 84 201 2 -3 16 22 31 55 14 33 21 62 16 65 -5 4 -9 2 -9 -2 0 -5
-10 -14 -22 -22 -20 -12 -21 -12 -12 0 6 8 14 33 17 55 3 27 21 65 48 105 24
35 45 66 46 68 1 2 10 0 20 -3 10 -4 19 -7 21 -7 1 1 19 -6 39 -14 20 -8 38
-13 40 -11 3 2 -11 10 -31 17 -19 7 -33 16 -31 19 2 4 -2 7 -10 8 -8 1 -22 3
-30 4 -19 2 -19 9 0 34 13 18 14 18 9 -6 -4 -21 -3 -22 5 -5 10 22 -3 45 -25
45 -8 0 -19 12 -24 26 -14 36 -13 44 9 44 24 0 36 16 19 23 -10 4 -10 6 0 6 7
1 10 6 7 11 -12 19 25 10 51 -12 35 -31 62 -32 56 -3 -3 19 -13 24 -55 29 -32
5 -46 10 -38 15 9 6 6 10 -11 16 -43 13 -48 13 -57 -3 -8 -15 -12 -15 -23 -3
-7 8 -8 11 -2 8 6 -3 11 0 11 8 0 12 -5 11 -30 -1 -16 -9 -35 -13 -42 -10 -8
3 -12 0 -9 -7 2 -7 -9 -23 -26 -35 l-30 -23 -23 25 c-21 23 -120 72 -142 71
-5 0 -17 -4 -25 -9 -12 -8 -12 -6 1 10 9 10 27 50 39 88 l23 70 -22 14 c-27
19 -31 78 -3 67 9 -3 31 -8 47 -11 l30 -4 -28 9 c-16 5 -34 14 -41 20 -7 6
-17 7 -21 3 -5 -4 -5 -2 -2 4 4 7 0 17 -8 24 -11 9 -12 17 -4 33 10 17 9 19
-7 13 -18 -6 -18 -5 -1 8 11 8 14 15 7 18 -8 2 -8 11 -2 28 7 18 6 28 -3 36
-9 9 -15 -3 -25 -55z m21 -438 c12 -16 12 -17 -2 -6 -9 7 -20 9 -24 5 -5 -4
-5 -1 -1 6 9 16 11 15 27 -5z m49 3 c0 -2 -7 -9 -15 -16 -13 -11 -14 -10 -9 4
5 14 24 23 24 12z m65 -16 c3 -5 1 -10 -4 -10 -6 0 -11 5 -11 10 0 6 2 10 4
10 3 0 8 -4 11 -10z m-153 -12 c-18 -18 -14 -27 11 -22 21 4 21 4 -2 -6 -19
-8 -21 -13 -11 -25 20 -24 -1 -17 -21 7 -23 26 -23 28 -1 44 21 17 40 18 24 2z
m108 -7 c0 -6 -4 -12 -8 -15 -5 -3 -9 1 -9 9 0 8 4 15 9 15 4 0 8 -4 8 -9z
m33 -24 c3 -8 -1 -14 -9 -14 -8 0 -14 6 -14 14 0 7 4 13 9 13 5 0 11 -6 14
-13z m-53 -11 c0 -3 -4 -8 -10 -11 -5 -3 -10 -1 -10 4 0 6 5 11 10 11 6 0 10
-2 10 -4z m-175 -26 c-39 -26 -54 -26 -24 0 13 10 31 19 39 20 8 0 2 -9 -15
-20z m-75 0 c-8 -5 -22 -9 -30 -9 -10 0 -8 3 5 9 27 12 43 12 25 0z m360 4 c0
-8 -19 -13 -24 -6 -3 5 1 9 9 9 8 0 15 -2 15 -3z m-412 -41 c-10 -2 -26 -2
-35 0 -10 3 -2 5 17 5 19 0 27 -2 18 -5z m-255 -548 c-3 -9 -8 -14 -10 -11 -3
3 -2 9 2 15 9 16 15 13 8 -4z m61 -20 c2 -5 -7 -10 -20 -10 -13 0 -26 5 -28
11 -3 7 5 11 20 10 13 0 25 -5 28 -11z m-59 -28 c0 -14 -6 -23 -16 -23 -9 0
-16 6 -16 13 0 7 4 10 8 8 4 -3 9 2 13 10 8 21 11 19 11 -8z m0 -47 c3 -6 -1
-7 -9 -4 -18 7 -21 14 -7 14 6 0 13 -4 16 -10z"/>
<path d="M781 2354 c0 -11 3 -14 6 -6 3 7 2 16 -1 19 -3 4 -6 -2 -5 -13z"/>
<path d="M1870 2350 c-1 -3 -7 -31 -14 -63 -11 -50 -10 -59 4 -72 9 -8 20 -12
24 -8 4 5 13 8 19 8 7 0 11 8 9 18 -2 9 2 17 9 17 8 0 7 5 -2 16 -7 9 -21 33
-30 53 -10 20 -18 34 -19 31z"/>
<path d="M1803 2260 c0 -25 2 -35 4 -22 2 12 2 32 0 45 -2 12 -4 2 -4 -23z"/>
<path d="M1542 2268 c17 -26 55 -35 72 -18 8 8 7 10 -6 5 -9 -4 -25 -2 -35 4
-13 8 -14 11 -3 10 8 -1 26 0 40 1 l25 2 -25 8 c-14 4 -38 8 -54 9 -27 1 -28
0 -14 -21z"/>
<path d="M2108 2214 c-3 -5 -6 -21 -7 -36 -2 -50 -4 -57 -12 -52 -4 2 -10 0
-14 -6 -3 -5 -2 -10 4 -10 5 0 11 -10 13 -22 3 -20 6 -18 21 16 9 21 17 48 16
60 -1 29 -14 62 -21 50z"/>
<path d="M1897 2199 c7 -7 15 -10 18 -7 3 3 -2 9 -12 12 -14 6 -15 5 -6 -5z"/>
<path d="M2037 2133 c-4 -3 -7 -11 -7 -17 0 -6 5 -5 12 2 6 6 9 14 7 17 -3 3
-9 2 -12 -2z"/>
<path d="M711 2065 c-1 -32 49 -59 65 -33 5 8 11 6 19 -6 11 -14 13 -13 13 10
0 25 -2 26 -44 21 -27 -3 -45 0 -48 7 -2 6 -5 7 -5 1z"/>
<path d="M2005 2040 c-3 -5 -1 -10 4 -10 6 0 11 5 11 10 0 6 -2 10 -4 10 -3 0
-8 -4 -11 -10z"/>
<path d="M700 2030 c0 -5 5 -10 11 -10 5 0 7 5 4 10 -3 6 -8 10 -11 10 -2 0
-4 -4 -4 -10z"/>
<path d="M1553 2025 c0 -8 4 -12 9 -9 5 3 6 10 3 15 -9 13 -12 11 -12 -6z"/>
<path d="M394 1966 c5 -14 2 -17 -10 -12 -15 6 -15 4 1 -21 9 -16 31 -41 48
-57 18 -16 27 -26 21 -23 -6 3 -11 0 -11 -7 0 -8 6 -12 13 -9 7 2 24 -3 37
-12 14 -9 31 -15 39 -14 7 1 19 1 27 0 27 -2 -20 -40 -58 -47 -72 -12 -76 -14
-46 -30 22 -11 32 -11 66 2 21 9 40 20 40 25 1 5 2 13 3 19 0 5 10 16 20 23
19 14 19 15 -10 30 -16 8 -45 32 -64 52 -19 20 -51 46 -70 58 -19 11 -39 26
-43 31 -5 7 -6 3 -3 -8z"/>
<path d="M1117 1961 c-4 -17 -3 -21 5 -13 5 5 8 16 6 23 -3 8 -7 3 -11 -10z"/>
<path d="M1951 1830 c-1 -17 17 -40 31 -40 4 0 8 5 8 11 0 5 -5 7 -10 4 -6 -3
-14 4 -19 17 -6 14 -10 17 -10 8z"/>
<path d="M1900 1761 c0 -5 10 -13 21 -16 17 -6 19 -9 8 -16 -9 -6 -10 -9 -2
-9 23 0 22 18 -2 34 -14 9 -25 12 -25 7z"/>
<path d="M360 1750 c0 -12 39 -20 46 -9 3 5 2 9 -3 10 -4 0 -16 2 -25 4 -10 2
-18 0 -18 -5z"/>
<path d="M1991 1732 c13 -16 25 -28 27 -27 7 6 -11 32 -30 44 -20 12 -20 11 3
-17z"/>
<path d="M2257 1724 c-8 -8 1 -24 14 -24 5 0 9 7 9 15 0 15 -12 20 -23 9z"/>
<path d="M750 1675 c-10 -12 -9 -15 6 -15 11 0 25 4 32 9 11 7 10 10 -3 15
-22 8 -21 8 -35 -9z"/>
<path d="M1990 1656 c0 -2 8 -10 18 -17 15 -13 16 -12 3 4 -13 16 -21 21 -21
13z"/>
<path d="M2060 1646 c0 -2 7 -7 16 -10 8 -3 12 -2 9 4 -6 10 -25 14 -25 6z"/>
<path d="M2187 1637 c-5 -13 -13 -16 -27 -12 -23 7 -27 -12 -7 -37 13 -18 77
-32 77 -17 0 5 8 9 19 9 21 0 45 23 34 33 -3 4 -16 7 -29 7 -12 0 -25 6 -27
13 -4 9 -8 9 -15 -2 -8 -11 -11 -10 -14 5 -3 18 -4 18 -11 1z"/>
<path d="M1176 1603 c-11 -11 -6 -23 9 -23 8 0 15 4 15 9 0 13 -16 22 -24 14z"/>
<path d="M1891 1575 c-31 -11 -53 -34 -57 -62 -3 -16 -4 -16 39 2 20 8 50 15
67 15 32 0 40 14 14 24 -8 3 -13 10 -10 15 10 15 -17 18 -53 6z"/>
<path d="M1777 1553 c-11 -17 2 -43 19 -36 8 3 14 9 14 15 0 5 -4 7 -9 3 -5
-3 -11 3 -13 12 -2 12 -6 14 -11 6z"/>
<path d="M2065 1540 c4 -6 11 -8 16 -5 14 9 11 15 -7 15 -8 0 -12 -5 -9 -10z"/>
<path d="M2305 1530 c-3 -5 -1 -10 4 -10 6 0 11 5 11 10 0 6 -2 10 -4 10 -3 0
-8 -4 -11 -10z"/>
<path d="M895 1511 c-7 -13 44 -36 55 -25 6 6 -1 14 -20 21 -16 6 -32 8 -35 4z"/>
<path d="M2119 1475 c-19 -7 -54 -22 -77 -34 -52 -27 -60 -26 -36 1 l19 22
-25 -17 c-28 -19 -50 -23 -32 -5 9 9 7 14 -5 23 -40 29 -85 -28 -183 -231 -32
-67 -38 -90 -36 -130 5 -65 39 -154 70 -180 13 -12 22 -25 19 -28 -4 -3 1 -6
10 -6 8 0 18 9 22 19 4 13 12 17 27 13 14 -3 19 -1 14 6 -4 7 -14 12 -22 12
-8 0 -12 5 -9 10 4 6 11 8 16 4 5 -3 1 10 -10 29 -13 23 -16 39 -9 50 10 19
48 23 48 6 0 -5 4 -8 8 -5 5 3 8 -5 8 -17 -1 -16 8 -26 32 -36 17 -8 32 -20
32 -27 0 -8 12 -12 30 -12 25 1 30 5 31 27 1 17 3 20 6 9 2 -10 8 -18 13 -18
5 0 7 6 4 14 -3 8 2 16 12 18 16 3 16 4 1 19 -9 9 -13 19 -10 23 4 3 -1 6 -10
6 -10 0 -17 -6 -17 -14 0 -20 -17 -29 -26 -15 -4 8 -3 9 4 5 7 -4 12 -1 12 8
0 8 -3 16 -7 19 -5 2 -2 2 6 0 8 -2 11 2 7 12 -3 8 -1 15 5 15 11 0 39 25 39
34 0 3 -7 6 -15 6 -13 0 -14 2 -3 14 7 8 16 12 20 10 4 -2 10 1 14 7 4 8 3 9
-4 5 -7 -4 -12 -1 -12 9 0 9 5 13 10 10 6 -4 10 7 10 24 0 17 3 31 8 31 9 0
36 -41 37 -55 0 -5 9 -11 20 -12 l20 -3 -20 9 c-11 5 -16 10 -11 10 5 1 2 9
-5 18 -13 15 -12 16 8 11 13 -4 25 -2 28 3 4 5 24 6 46 4 25 -3 38 -2 34 4 -3
6 0 19 7 30 12 19 13 19 56 -5 24 -14 46 -24 48 -22 1 2 5 16 8 32 4 22 2 25
-8 16 -11 -8 -23 -2 -52 25 -24 23 -45 35 -56 32 -10 -3 -16 -1 -12 4 3 5 -4
9 -14 9 -11 0 -22 9 -25 19 -4 15 1 21 22 24 24 4 24 4 -5 6 -22 1 -34 8 -41
24 l-10 22 -7 -22 c-9 -28 -41 -32 -33 -4 4 18 2 18 -49 6 -30 -7 -54 -9 -54
-5 0 5 -3 15 -6 23 -4 11 5 18 32 26 20 6 41 8 46 5 4 -3 8 -1 8 5 0 5 8 11
18 13 9 2 13 6 7 9 -5 4 -26 1 -46 -6z m-178 -88 l-23 -22 17 28 c10 15 20 25
23 22 3 -3 -5 -16 -17 -28z m147 -165 c4 -14 0 -15 -22 -6 -9 3 -16 10 -16 14
0 12 33 5 38 -8z m107 -2 c-3 -5 -16 -10 -28 -9 -20 1 -20 2 3 9 14 4 26 8 28
9 2 1 0 -3 -3 -9z m-145 -238 c0 -5 -30 -34 -31 -30 -6 28 -4 34 12 34 11 0
19 -2 19 -4z"/>
<path d="M2075 1429 c-17 -6 -16 -8 7 -8 15 -1 29 3 32 7 6 11 -14 11 -39 1z"/>
<path d="M225 1340 c3 -5 13 -10 21 -10 8 0 14 5 14 10 0 6 -9 10 -21 10 -11
0 -17 -4 -14 -10z"/>
<path d="M320 1310 c0 -5 5 -10 10 -10 6 0 10 5 10 10 0 6 -4 10 -10 10 -5 0
-10 -4 -10 -10z"/>
<path d="M485 1240 c-3 -5 3 -10 15 -10 12 0 18 5 15 10 -3 6 -10 10 -15 10
-5 0 -12 -4 -15 -10z"/>
<path d="M870 1225 c11 -13 10 -14 -4 -9 -9 3 -16 1 -16 -6 0 -6 7 -10 17 -8
21 4 26 38 6 38 -13 0 -13 -3 -3 -15z"/>
<path d="M2297 1219 c7 -7 15 -10 18 -7 3 3 -2 9 -12 12 -14 6 -15 5 -6 -5z"/>
<path d="M2420 1209 c0 -5 5 -7 10 -4 6 3 10 8 10 11 0 2 -4 4 -10 4 -5 0 -10
-5 -10 -11z"/>
<path d="M560 1200 c0 -5 4 -10 9 -10 6 0 13 5 16 10 3 6 -1 10 -9 10 -9 0
-16 -4 -16 -10z"/>
<path d="M275 1180 c3 -5 8 -10 11 -10 2 0 4 5 4 10 0 6 -5 10 -11 10 -5 0 -7
-4 -4 -10z"/>
<path d="M2306 1154 c-4 -9 -4 -19 -1 -22 2 -3 7 3 11 12 4 9 4 19 1 22 -2 3
-7 -3 -11 -12z"/>
<path d="M775 1130 c3 -5 8 -10 11 -10 2 0 4 5 4 10 0 6 -5 10 -11 10 -5 0 -7
-4 -4 -10z"/>
<path d="M856 1112 c-3 -6 1 -15 8 -21 8 -7 17 -8 20 -3 3 6 -1 15 -8 21 -8 7
-17 8 -20 3z"/>
<path d="M2173 1095 c0 -8 5 -11 10 -8 6 4 8 -1 4 -11 -6 -14 -3 -16 13 -11
20 6 25 -5 22 -47 -1 -10 2 -18 8 -18 18 0 21 20 6 48 -8 16 -13 32 -11 36 3
3 2 4 -2 1 -3 -3 -16 1 -28 9 -18 12 -22 12 -22 1z"/>
<path d="M2250 1075 c-10 -12 -10 -15 4 -15 9 0 16 7 16 15 0 8 -2 15 -4 15
-2 0 -9 -7 -16 -15z"/>
<path d="M2485 1050 c3 -5 10 -10 16 -10 5 0 9 5 9 10 0 6 -7 10 -16 10 -8 0
-12 -4 -9 -10z"/>
<path d="M730 1040 c0 -5 7 -7 15 -4 8 4 15 8 15 10 0 2 -7 4 -15 4 -8 0 -15
-4 -15 -10z"/>
<path d="M1070 1029 c0 -5 5 -7 10 -4 6 3 10 8 10 11 0 2 -4 4 -10 4 -5 0 -10
-5 -10 -11z"/>
<path d="M975 1019 c-4 -5 -5 -9 -3 -10 34 -8 48 -7 48 4 0 15 -37 20 -45 6z"/>
<path d="M2160 1015 c-19 -22 -7 -41 13 -21 18 19 22 36 8 36 -5 0 -14 -7 -21
-15z"/>
<path d="M410 990 c-13 -8 -13 -10 2 -10 9 0 20 5 23 10 8 13 -5 13 -25 0z"/>
<path d="M595 980 c3 -5 11 -10 16 -10 6 0 7 5 4 10 -3 6 -11 10 -16 10 -6 0
-7 -4 -4 -10z"/>
<path d="M527 956 c-4 -10 -1 -13 9 -9 15 6 19 23 5 23 -5 0 -11 -7 -14 -14z"/>
<path d="M1350 935 c-7 -9 -10 -18 -7 -21 10 -11 37 5 37 21 0 19 -14 19 -30
0z"/>
<path d="M590 930 c0 -5 4 -10 9 -10 6 0 13 5 16 10 3 6 -1 10 -9 10 -9 0 -16
-4 -16 -10z"/>
<path d="M2215 910 c-3 -5 -1 -10 4 -10 6 0 11 5 11 10 0 6 -2 10 -4 10 -3 0
-8 -4 -11 -10z"/>
<path d="M2382 868 c-28 -28 -3 -66 33 -52 20 8 19 50 -1 58 -20 8 -18 8 -32
-6z"/>
<path d="M2166 823 c-6 -14 -5 -15 5 -6 7 7 10 15 7 18 -3 3 -9 -2 -12 -12z"/>
<path d="M2084 768 c-14 -28 -15 -31 -2 -20 14 11 31 52 22 52 -2 0 -11 -15
-20 -32z"/>
<path d="M1480 760 c0 -5 17 -10 38 -10 27 0 33 3 22 10 -20 13 -60 13 -60 0z"/>
<path d="M1568 753 c6 -2 18 -2 25 0 6 3 1 5 -13 5 -14 0 -19 -2 -12 -5z"/>
<path d="M1610 700 c0 -5 7 -10 15 -10 8 0 15 5 15 10 0 6 -7 10 -15 10 -8 0
-15 -4 -15 -10z"/>
<path d="M2145 690 c-4 -12 -5 -24 -2 -27 3 -2 8 5 12 17 4 12 5 24 2 27 -3 2
-8 -5 -12 -17z"/>
<path d="M2556 645 c4 -8 8 -15 10 -15 2 0 4 7 4 15 0 8 -4 15 -10 15 -5 0 -7
-7 -4 -15z"/>
<path d="M1675 590 c3 -5 13 -10 21 -10 8 0 12 5 9 10 -3 6 -13 10 -21 10 -8
0 -12 -4 -9 -10z"/>
<path d="M2106 585 c-9 -26 -7 -32 5 -12 6 10 9 21 6 23 -2 3 -7 -2 -11 -11z"/>
<path d="M1460 551 c0 -10 25 -21 48 -21 12 1 10 5 -8 15 -29 17 -40 18 -40 6z"/>
</g>
</svg>
