<?xml version="1.0" standalone="no"?>
<!DOCTYPE svg PUBLIC "-//W3C//DTD SVG 20010904//EN"
 "http://www.w3.org/TR/2001/REC-SVG-20010904/DTD/svg10.dtd">
<svg version="1.0" xmlns="http://www.w3.org/2000/svg"
 width="300.000000pt" height="29.000000pt" viewBox="0 0 300.000000 29.000000"
 preserveAspectRatio="xMidYMid meet">

<g transform="translate(0.000000,29.000000) scale(0.100000,-0.100000)"
fill="#686c4a" stroke="none">
<path d="M160 205 c0 -3 7 -17 16 -30 23 -35 -1 -33 -38 2 -26 25 -55 26 -30
1 18 -18 15 -28 -8 -28 -11 0 -20 -4 -20 -10 0 -5 9 -10 20 -10 25 0 25 -9 3
-26 -14 -9 -15 -16 -7 -24 9 -9 21 -4 48 20 20 18 36 27 36 22 0 -6 -4 -14
-10 -17 -14 -8 -13 -35 1 -35 6 0 20 11 31 25 11 14 29 25 40 25 20 0 20 -1 5
-18 -18 -20 -22 -42 -9 -42 5 0 21 14 37 30 21 22 38 30 62 30 33 0 45 -16 19
-26 -18 -7 -28 -32 -16 -39 5 -3 25 9 45 26 l36 32 377 -17 c591 -26 1146 -38
1399 -31 128 4 236 7 240 6 5 0 9 -11 11 -25 2 -13 10 -27 19 -30 20 -8 146
50 141 64 -3 10 -130 60 -150 60 -4 0 -11 -12 -14 -26 l-7 -27 -626 6 c-373 4
-785 14 -1019 25 l-392 19 -34 39 c-39 45 -59 41 -26 -5 l21 -31 -30 0 c-23 0
-34 8 -51 35 -34 55 -50 44 -25 -17 13 -31 -18 -20 -48 17 -25 31 -47 45 -47
30z"/>
</g>
</svg>
